<svg xmlns="http://www.w3.org/2000/svg" xmlns:xlink="http://www.w3.org/1999/xlink" version="1.1" x="0px" y="0px" viewBox="0 0 100 112" enable-background="new 0 0 100 100" xml:space="preserve"><g><rect x="53" y="74" fill="#fff" width="3" height="6"/><path fill="#fff" d="M97,44.8L80,28.9V8c0-1.7-1.3-3-3-3H65c-1.7,0-3,1.3-3,3v4.1L52,2.8c-1.2-1.1-2.9-1.1-4.1,0l-45,42   c-1.2,1.1-1.3,3-0.1,4.2c1.1,1.2,3,1.3,4.2,0.1l7-6.5V98h21h30h21V42.7l7,6.5c0.6,0.5,1.3,0.8,2,0.8c0.8,0,1.6-0.3,2.2-1   C98.3,47.8,98.3,45.9,97,44.8z M68,17v-6h6v12.3l-6.1-5.7C67.9,17.4,68,17.2,68,17z M20,92v-6h15v6H20z M41,92V56h18v36H41z M65,92   v-6h15v6H65z M80,80H65V50H35v30H20V37.1l30-28l30,28V80z"/></g>
<!-- <text x="0" y="115" fill="#fff" font-size="5px" font-weight="bold" font-family="'Helvetica Neue', Helvetica, Arial-Unicode, Arial, Sans-serif">Created by Alex Podolsky</text><text x="0" y="120" fill="#fff" font-size="5px" font-weight="bold" font-family="'Helvetica Neue', Helvetica, Arial-Unicode, Arial, Sans-serif">from the Noun Project</text> -->
</svg>
